<?xml version="1.0" encoding="utf-8"?>
<!-- Generator: Adobe Illustrator 16.0.0, SVG Export Plug-In . SVG Version: 6.00 Build 0)  -->
<!DOCTYPE svg PUBLIC "-//W3C//DTD SVG 1.1//EN" "http://www.w3.org/Graphics/SVG/1.1/DTD/svg11.dtd">
<svg version="1.1" id="Layer_1" xmlns="http://www.w3.org/2000/svg" xmlns:xlink="http://www.w3.org/1999/xlink" x="0px" y="0px"
	 width="195.122px" height="166.342px" viewBox="0 0 195.122 166.342" enable-background="new 0 0 195.122 166.342"
	 xml:space="preserve">
<g>
	<path fill="#ABABAB" d="M49.801,88.796c-5.614,0-10.898-1.047-15.853-3.135c-4.957-2.088-9.286-4.984-12.986-8.687
		c-3.703-3.7-6.627-8.03-8.777-12.986c-2.149-4.954-3.224-10.238-3.224-15.852c0-5.612,1.075-10.896,3.224-15.852
		c2.149-4.954,5.074-9.253,8.777-12.897c3.7-3.641,8.029-6.538,12.986-8.687c4.954-2.149,10.238-3.224,15.853-3.224
		c5.611,0,10.896,1.075,15.852,3.224c4.954,2.149,9.252,5.046,12.896,8.687c3.641,3.644,6.538,7.943,8.688,12.897
		c2.149,4.957,3.224,10.24,3.224,15.852c0,5.614-1.075,10.898-3.224,15.852c-2.149,4.957-5.046,9.286-8.688,12.986
		c-3.644,3.702-7.943,6.599-12.896,8.687C60.696,87.749,55.412,88.796,49.801,88.796z M49.801,13.566
		c-4.778,0-9.287,0.926-13.524,2.776c-4.24,1.853-7.912,4.33-11.016,7.434c-3.106,3.106-5.583,6.748-7.434,10.926
		c-1.853,4.181-2.776,8.659-2.776,13.434c0,4.777,0.924,9.286,2.776,13.523c1.85,4.24,4.327,7.912,7.434,11.015
		c3.104,3.107,6.776,5.584,11.016,7.434c4.237,1.854,8.746,2.777,13.524,2.777c4.774,0,9.252-0.924,13.434-2.777
		c4.179-1.85,7.82-4.326,10.927-7.434c3.104-3.103,5.581-6.775,7.433-11.015c1.85-4.237,2.776-8.746,2.776-13.523
		c0-4.775-0.926-9.253-2.776-13.434c-1.853-4.179-4.33-7.82-7.433-10.926c-3.107-3.104-6.748-5.581-10.927-7.434
		C59.053,14.492,54.575,13.566,49.801,13.566z"/>
	<path fill="#ABABAB" d="M145.809,76.796c5.732,0,11.105,1.074,16.121,3.224s9.404,5.104,13.166,8.866s6.744,8.15,8.955,13.166
		c2.209,5.016,3.314,10.389,3.314,16.121c0,5.73-1.105,11.105-3.314,16.119c-2.211,5.016-5.193,9.404-8.955,13.166
		s-8.15,6.717-13.166,8.867c-5.016,2.148-10.389,3.223-16.121,3.223c-5.73,0-11.105-1.074-16.121-3.223
		c-5.014-2.15-9.402-5.105-13.164-8.867s-6.718-8.15-8.867-13.166c-2.149-5.014-3.224-10.389-3.224-16.119
		c0-4.42,0.686-8.688,2.059-12.809c1.372-4.119,3.284-7.881,5.732-11.283c2.446-3.404,5.374-6.391,8.778-8.957
		c3.402-2.566,7.074-4.567,11.016-6c-0.479-0.358-1.076-1.014-1.791-1.971c-1.555-1.67-2.418-3.372-2.598-5.104
		c-0.18-1.73-0.211-2.956-0.09-3.672c-5.615-2.625-10.121-6.565-13.523-11.822c-3.404-5.253-5.105-11.105-5.105-17.554
		c0-4.537,0.834-8.777,2.508-12.717c1.67-3.941,4-7.403,6.986-10.389c2.982-2.983,6.447-5.312,10.389-6.986
		c3.941-1.671,8.178-2.507,12.717-2.507c1.551,0,3.104,0.089,4.658,0.269c1.551,0.179,3.045,0.509,4.477,0.985
		c0.238,0,0.418,0.062,0.539,0.179c0.834,0.241,2.029,0.538,3.582,0.896c1.551,0.358,3.252,0.599,5.105,0.716
		c1.85,0.12,3.672,0.089,5.463-0.09c1.791-0.179,3.402-0.626,4.836-1.343c0.717-0.358,1.461-0.417,2.238-0.179
		c0.775,0.241,1.344,0.717,1.701,1.433c0.477,0.716,0.598,1.495,0.359,2.329c-0.24,0.837-0.779,1.433-1.613,1.791
		c-1.314,0.717-2.717,1.226-4.209,1.522c-1.494,0.3-3.016,0.51-4.566,0.627c3.104,2.986,5.521,6.479,7.254,10.479
		c1.729,4.002,2.598,8.329,2.598,12.986c0,4.54-0.838,8.777-2.508,12.718c-1.674,3.94-4.002,7.375-6.986,10.299
		c-2.986,2.927-6.447,5.256-10.389,6.985c-3.941,1.732-8.121,2.597-12.539,2.597c-2.748,0-5.373-0.357-7.881-1.075
		c0,1.075,0.418,2.032,1.254,2.866C136.791,75.661,140.436,76.796,145.809,76.796z M145.809,153.638
		c4.896,0,9.494-0.926,13.793-2.775c4.299-1.854,8.061-4.389,11.285-7.613c3.223-3.225,5.76-6.986,7.611-11.285
		c1.85-4.299,2.777-8.896,2.777-13.791c0-4.898-0.928-9.494-2.777-13.793c-1.852-4.299-4.389-8.033-7.611-11.195
		c-3.225-3.166-6.986-5.67-11.285-7.523c-4.299-1.85-8.896-2.775-13.793-2.775s-9.492,0.926-13.791,2.775
		c-4.299,1.854-8.033,4.357-11.195,7.523c-3.166,3.162-5.674,6.896-7.523,11.195c-1.854,4.299-2.777,8.895-2.777,13.793
		c0,4.895,0.924,9.492,2.777,13.791c1.85,4.299,4.357,8.061,7.523,11.285c3.162,3.225,6.896,5.76,11.195,7.613
		C136.316,152.712,140.912,153.638,145.809,153.638z M115,39.001c0,3.583,0.686,6.986,2.061,10.21
		c1.371,3.224,3.252,6.062,5.643,8.508c2.387,2.449,5.193,4.36,8.418,5.731c3.225,1.375,6.686,2.06,10.389,2.06
		c3.582,0,6.986-0.686,10.211-2.06c3.225-1.371,6.059-3.283,8.508-5.731c2.445-2.446,4.357-5.284,5.732-8.508
		c1.371-3.224,2.059-6.627,2.059-10.21c0-3.7-0.688-7.165-2.059-10.389c-1.375-3.224-3.287-6.028-5.732-8.418
		c-2.449-2.387-5.283-4.268-8.508-5.642c-3.225-1.372-6.629-2.06-10.211-2.06c-3.703,0-7.164,0.688-10.389,2.06
		c-3.225,1.374-6.031,3.255-8.418,5.642c-2.391,2.39-4.271,5.194-5.643,8.418C115.686,31.836,115,35.301,115,39.001z"/>
</g>
<g>
	<path fill="#ABABAB" d="M72.205,52.574c0,12.668-10.274,22.941-22.941,22.941c-12.667,0-22.941-10.273-22.941-22.941H72.205z"/>
</g>
<g>
	<path fill="#ABABAB" d="M169.394,123.067c0,12.668-10.275,22.941-22.941,22.941c-12.667,0-22.942-10.273-22.942-22.941H169.394z"/>
</g>
<g>
	<path fill="#ABABAB" d="M160.634,40.27c0,11.057-8.967,20.021-20.021,20.021c-11.056,0-20.022-8.965-20.022-20.021H160.634z"/>
</g>
</svg>
